<?xml version="1.0" standalone="no"?>
<!DOCTYPE svg PUBLIC "-//W3C//DTD SVG 20010904//EN"
 "http://www.w3.org/TR/2001/REC-SVG-20010904/DTD/svg10.dtd">
<svg version="1.0" xmlns="http://www.w3.org/2000/svg"
 width="543.000000pt" height="543.000000pt" viewBox="0 0 543.000000 543.000000"
 preserveAspectRatio="xMidYMid meet">
<metadata>
Created by potrace 1.14, written by Peter Selinger 2001-2017
</metadata>
<g transform="translate(0.000000,543.000000) scale(0.100000,-0.100000)"
fill="#000000" stroke="none">
<path d="M2588 5415 c-2 -1 -43 -6 -93 -9 -112 -9 -205 -22 -340 -50 -128 -26
-374 -103 -470 -146 -445 -200 -746 -423 -1045 -776 -140 -164 -310 -443 -399
-654 -13 -30 -28 -64 -32 -75 -55 -125 -134 -416 -154 -560 -3 -23 -7 -50 -9
-60 -21 -109 -29 -503 -14 -650 28 -262 86 -497 190 -758 195 -491 603 -979
1054 -1258 38 -24 79 -50 90 -56 49 -32 247 -129 343 -168 344 -141 652 -196
1056 -190 250 3 263 4 435 35 147 27 146 26 282 66 196 56 407 146 598 255 61
35 248 159 283 188 12 10 63 52 112 94 94 78 262 247 330 332 22 28 42 52 45
55 12 11 109 148 142 200 19 30 43 69 54 85 35 56 164 307 164 320 0 4 7 21
15 38 45 98 128 370 149 491 3 16 10 52 15 80 27 139 35 247 35 471 0 105 -3
222 -7 260 -115 1118 -895 2043 -1975 2344 -226 63 -433 92 -689 96 -90 1
-164 1 -165 0z"/>
</g>
</svg>
